<svg xmlns="http://www.w3.org/2000/svg" fill="none" viewBox="0 0 96 96" id="Github-Icon--Streamline-Svg-Logos">
  <path fill="#161614" d="M48.0004 2.16016C22.0462 2.16016 1 23.2025 1 49.1605c0 20.766 13.467 38.3838 32.1417 44.5986 2.349 0.435 3.2113 -1.0196 3.2113 -2.261 0 -1.1208 -0.0436 -4.8232 -0.0638 -8.7505 -13.0755 2.8431 -15.8346 -5.5454 -15.8346 -5.5454 -2.1381 -5.4326 -5.2186 -6.8772 -5.2186 -6.8772 -4.2643 -2.9171 0.3214 -2.8571 0.3214 -2.8571 4.7197 0.3315 7.2048 4.8434 7.2048 4.8434 4.192 7.1853 10.9952 5.108 13.6772 3.9071 0.4219 -3.0378 1.6399 -5.1112 2.984 -6.2849 -10.4394 -1.1884 -21.4135 -5.2185 -21.4135 -23.2277 0 -5.1314 1.836 -9.3242 4.8426 -12.6156 -0.488 -1.1838 -2.0967 -5.9642 0.4553 -12.4381 0 0 3.9468 -1.2632 12.9285 4.8177 3.7491 -1.0414 7.7698 -1.5636 11.7641 -1.5815 3.9943 0.0179 8.0181 0.5401 11.7742 1.5815 8.9708 -6.0809 12.9121 -4.8177 12.9121 -4.8177 2.5583 6.4739 0.9488 11.2543 0.4608 12.4381 3.0136 3.2914 4.8372 7.4842 4.8372 12.6156 0 18.052 -10.9952 22.0268 -21.4611 23.1904 1.6858 1.4585 3.188 4.3188 3.188 8.7038 0 6.2887 -0.0545 11.35 -0.0545 12.8981 0 1.2507 0.846 2.7163 3.2284 2.2547C81.5501 87.5311 95 69.9195 95 49.1605c0 -25.958 -21.0431 -47.00034 -46.9996 -47.00034ZM18.6032 69.1132c-0.1035 0.2335 -0.4709 0.3035 -0.8056 0.1432 -0.3409 -0.1533 -0.5323 -0.4716 -0.4218 -0.7059 0.1012 -0.2405 0.4693 -0.3075 0.8094 -0.1463 0.3417 0.1533 0.5363 0.4747 0.418 0.709Zm2.3119 2.0629c-0.2242 0.2078 -0.6624 0.1113 -0.9597 -0.2172 -0.3074 -0.3276 -0.365 -0.7658 -0.1377 -0.9767 0.2311 -0.2079 0.6561 -0.1106 0.9643 0.2171 0.3074 0.3316 0.3673 0.7666 0.1331 0.9768Zm1.586 2.6393c-0.288 0.2001 -0.7588 0.0125 -1.0499 -0.4054 -0.288 -0.418 -0.288 -0.9192 0.0062 -1.12 0.2919 -0.2008 0.7557 -0.0203 1.0507 0.3946 0.2872 0.4249 0.2872 0.9262 -0.007 1.1308Zm2.6824 3.0568c-0.2577 0.2841 -0.8064 0.2078 -1.208 -0.1798 -0.4109 -0.379 -0.5253 -0.9168 -0.2669 -1.2009 0.2607 -0.2849 0.8125 -0.2047 1.2172 0.1798 0.4079 0.3783 0.5324 0.92 0.2577 1.2009Zm3.4666 1.032c-0.1136 0.3681 -0.6421 0.5354 -1.1744 0.379 -0.5316 -0.1611 -0.8795 -0.5923 -0.7721 -0.9643 0.1105 -0.3705 0.6413 -0.5448 1.1776 -0.3775 0.5308 0.1603 0.8795 0.5884 0.7689 0.9628Zm3.9453 0.4377c0.0132 0.3876 -0.4382 0.709 -0.997 0.716 -0.562 0.0125 -1.0165 -0.3012 -1.0227 -0.6826 0 -0.3914 0.4413 -0.7098 1.0032 -0.7191 0.5588 -0.0109 1.0165 0.3004 1.0165 0.6857Zm3.8757 -0.1486c0.0669 0.3783 -0.3214 0.7666 -0.8764 0.8702 -0.5456 0.0996 -1.0507 -0.1339 -1.12 -0.5091 -0.0677 -0.3876 0.3277 -0.7759 0.8725 -0.8763 0.5557 -0.0965 1.0531 0.1307 1.1239 0.5152Z" stroke-width="1" />
</svg>