<svg xmlns="http://www.w3.org/2000/svg" fill="none" viewBox="0 0 96 96" id="Monday-Icon--Streamline-Svg-Logos">
  <path fill="#f62b54" d="M12.6933 76.0408c-4.23051 0.0092 -8.1387 -2.2587 -10.2298 -5.9362 -2.060958 -3.6549 -1.937371 -8.1487 0.32135 -11.6848L23.8514 25.3382c2.1951 -3.6197 6.168 -5.7783 10.3993 -5.6504 4.2283 0.1013 8.0743 2.472 10.0647 6.2039 1.9638 3.7134 1.7183 8.1811 -0.6338 11.6669L22.6285 70.6402c-2.1699 3.3812 -5.9177 5.4184 -9.9352 5.4006Z" stroke-width="1" />
  <path fill="#FFCC00" d="M48.8273 76.0408c-4.2491 0 -8.1589 -2.2719 -10.212 -5.9228 -2.0563 -3.645 -1.9327 -8.1274 0.3214 -11.6535l21.0264 -33.0058c2.1634 -3.6716 6.1481 -5.8809 10.4083 -5.7709 4.2847 0.0937 8.1677 2.4905 10.1315 6.2396 1.9505 3.7491 1.6648 8.2436 -0.7587 11.7205L58.7223 70.6536c-2.163 3.3665 -5.8935 5.3976 -9.895 5.3872Z" stroke-width="1" />
  <path fill="#00ca72" d="M84.1548 76.3177c5.9899 0 10.8457 -4.7539 10.8457 -10.6181s-4.8558 -10.6181 -10.8457 -10.6181c-5.9899 0 -10.8457 4.7539 -10.8457 10.6181s4.8558 10.6181 10.8457 10.6181Z" stroke-width="1" />
</svg>