<svg xmlns="http://www.w3.org/2000/svg" fill="none" viewBox="0 0 96 96" id="Notion-Icon--Streamline-Svg-Logos">
  <path fill="#ffffff" d="M8.67074 5.05512 60.6835 1.21369c6.3888 -0.548322 8.0306 -0.17859 12.0475 2.74164L89.3343 15.6519c2.7385 2.0116 3.6503 2.5599 3.6503 4.7501V84.55c0 4.02 -1.4601 6.3982 -6.5705 6.7616l-60.4006 3.6566c-3.8351 0.1817 -5.6618 -0.3666 -7.6703 -2.9265L6.1171 76.1434c-2.19331 -2.9265 -3.10196 -5.1167 -3.10196 -7.6766V11.447c0 -3.28679 1.46011 -6.02842 5.6556 -6.39188Z" stroke-width="1" />
  <path fill="#000000" d="M60.6835 1.21369 8.67074 5.05512c-4.19549 0.36346 -5.6556 3.10509 -5.6556 6.39188v57.0198c0 2.5599 0.90865 4.7501 3.10196 7.6766l12.2261 15.8983c2.0085 2.5599 3.8352 3.1082 7.6703 2.9265l60.4006 -3.6566c5.1073 -0.3634 6.5705 -2.7416 6.5705 -6.7616V20.402c0 -2.0774 -0.8209 -2.6758 -3.2367 -4.4493 -0.139 -0.1001 -0.2779 -0.2004 -0.4167 -0.3008L72.731 3.95533C68.7141 1.0351 67.0723 0.665368 60.6835 1.21369ZM27.3797 19.3524c-4.9319 0.3321 -6.0504 0.4073 -8.8516 -1.8706l-7.122 -5.665c-0.7238 -0.7332 -0.3603 -1.6481 1.4633 -1.82987L62.8705 6.3335c4.1986 -0.36659 6.3857 1.09666 8.0275 2.37504l8.5759 6.21336c0.3665 0.1848 1.2783 1.2784 0.1817 1.2784l-51.6368 3.1082 -0.6391 0.0439Zm-5.7496 64.6493V29.545c0 -2.3782 0.73 -3.4749 2.9171 -3.6597l59.307 -3.4717c2.0116 -0.1817 2.9202 1.0966 2.9202 3.4717v54.0932c0 2.3782 -0.3666 4.3898 -3.6503 4.5715l-56.7534 3.29c-3.2837 0.1817 -4.7406 -0.9118 -4.7406 -3.8383Zm56.0233 -51.5365c0.3635 1.645 0 3.29 -1.645 3.478l-2.7353 0.542v40.2065c-2.3751 1.2784 -4.5621 2.0084 -6.3888 2.0084 -2.9203 0 -3.6503 -0.9149 -5.8374 -3.6534l-17.888 -28.1433v27.2284l5.6588 1.2815s0 3.29 -4.5652 3.29l-12.5865 0.73c-0.3666 -0.7332 0 -2.5599 1.2753 -2.9233l3.2868 -0.9118V39.5966l-4.5621 -0.3697c-0.3666 -1.645 0.5452 -4.0201 3.102 -4.2049l13.5045 -0.9087L66.8843 62.62V37.4001l-4.7438 -0.5452c-0.3666 -2.0147 1.0935 -3.4779 2.917 -3.6565l12.5959 -0.7332Z" stroke-width="1" />
</svg>