<svg xmlns="http://www.w3.org/2000/svg" fill="none" viewBox="0 0 96 96">
  <path fill="#e01e5a" d="M20.8165 60.4136c0 5.459 -4.4121 9.8711 -9.8712 9.8711 -5.45899 0 -9.87108 -4.4121 -9.87108 -9.8711 0 -5.459 4.41209 -9.8711 9.87108 -9.8711h9.8712v9.8711Zm4.9355 0c0 -5.459 4.4121 -9.8711 9.8711 -9.8711 5.4591 0 9.8712 4.4121 9.8712 9.8711v24.6778c0 5.459 -4.4121 9.8711 -9.8712 9.8711 -5.459 0 -9.8711 -4.4121 -9.8711 -9.8711V60.4136Z" stroke-width="1" />
  <path fill="#36c5f0" d="M35.6237 20.7798c-5.459 0 -9.8711 -4.4121 -9.8711 -9.8711 0 -5.45901 4.4121 -9.8711 9.8711 -9.8711 5.459 0 9.8711 4.41209 9.8711 9.8711v9.8711h-9.8711Zm0 5.0104c5.459 0 9.8711 4.4121 9.8711 9.8711 0 5.459 -4.4121 9.8711 -9.8711 9.8711H10.8711C5.41209 45.5324 1 41.1203 1 35.6613c0 -5.459 4.41209 -9.8711 9.8711 -9.8711h24.7526Z" stroke-width="1" />
  <path fill="#2eb67d" d="M75.1827 35.6613c0 -5.459 4.4121 -9.8711 9.8711 -9.8711 5.459 0 9.8711 4.4121 9.8711 9.8711 0 5.459 -4.4121 9.8711 -9.8711 9.8711h-9.8711v-9.8711Zm-4.9356 0c0 5.459 -4.4121 9.8711 -9.8711 9.8711 -5.459 0 -9.8711 -4.4121 -9.8711 -9.8711V10.9087c0 -5.45901 4.4121 -9.8711 9.8711 -9.8711 5.459 0 9.8711 4.41209 9.8711 9.8711v24.7526Z" stroke-width="1" />
  <path fill="#ecb22e" d="M60.376 75.2203c5.459 0 9.8711 4.4121 9.8711 9.8711 0 5.459 -4.4121 9.8711 -9.8711 9.8711 -5.459 0 -9.8711 -4.4121 -9.8711 -9.8711v-9.8711h9.8711Zm0 -4.9356c-5.459 0 -9.8711 -4.4121 -9.8711 -9.8711 0 -5.459 4.4121 -9.8711 9.8711 -9.8711h24.7526c5.459 0 9.8711 4.4121 9.8711 9.8711 0 5.459 -4.4121 9.8711 -9.8711 9.8711H60.376Z" stroke-width="1" />
</svg>
