<svg xmlns="http://www.w3.org/2000/svg" fill="none" viewBox="70 35 25 25">
  <path fill="#f99d1c" d="M82.852 45.9995c-1.0606 0.2893 -2.1211 0.5303 -3.1816 0.8677 -2.185 -1.9684 -4.9339 -3.1995 -7.8574 -3.5189 4.3289 -3.1087 9.5178 -4.7934 14.8472 -4.8206l-1.8318 1.6872s7.761 -0.2892 9.6892 -2.9405c-0.058 0.2793 -0.1386 0.5533 -0.241 0.8195 -0.5524 1.5749 -1.5382 2.9618 -2.8441 4.001 -1.2195 0.9538 -2.5661 1.7326 -4.001 2.3139 -1.4271 0.6226 -2.8923 1.154 -4.3867 1.5907 -0.0482 -0.0482 -0.1446 0 -0.1928 0Zm12.1477 -0.241c-4.9216 -0.223 -9.8451 0.3965 -14.558 1.8318 0.9959 1.0393 1.8252 2.2263 2.4585 3.519 3.9046 -2.1692 9.3036 -4.9651 12.0995 -5.3508ZM83.3822 52.218c0.4638 1.1899 0.756 2.4396 0.8677 3.7118l6.7969 -6.9897 -7.6646 3.2779Z" stroke-width="1" />
</svg>